<svg width="80" height="80" viewBox="0 0 80 80" fill="none" xmlns="http://www.w3.org/2000/svg">
  <path fill-rule="evenodd" clip-rule="evenodd" d="M80 40C80 62.0914 62.0914 80 40 80C17.9086 80 0 62.0914 0 40C0 17.9086 17.9086 0 40 0C62.0914 0 80 17.9086 80 40ZM58.7634 30.6459C59.1201 30.2243 59.0676 29.5934 58.6459 29.2366C58.2243 28.8799 57.5934 28.9325 57.2366 29.3541L35.9386 54.5244L24.7071 43.2929C24.3166 42.9024 23.6834 42.9024 23.2929 43.2929C22.9024 43.6834 22.9024 44.3166 23.2929 44.7071L35.2929 56.7071C35.4906 56.9049 35.7621 57.0108 36.0416 56.9991C36.321 56.9875 36.5827 56.8594 36.7634 56.6459L58.7634 30.6459Z" fill="#69f0ae"/>
</svg>
